<svg version="1.1" id="Layer_1" xmlns="http://www.w3.org/2000/svg" xmlns:xlink="http://www.w3.org/1999/xlink" x="0px" y="0px"
	 width="100%" viewBox="0 0 3840 2160" enable-background="new 0 0 3840 2160" xml:space="preserve">
<path fill="#fff" opacity="1.000000" stroke="none" 
	d="
M2524.000000,2162.000000 
	C1682.666870,2162.000000 842.333618,2162.000000 2.000338,2162.000000 
	C2.000226,1442.000244 2.000226,722.000549 2.000113,2.000628 
	C1281.999512,2.000419 2561.999023,2.000419 3841.999023,2.000209 
	C3841.999268,721.999329 3841.999268,1441.998657 3841.999512,2161.999023 
	C3403.000000,2162.000000 2964.000000,2162.000000 2524.000000,2162.000000 
M171.534561,1210.491699 
	C190.217148,1165.642334 208.901260,1120.793701 227.582001,1075.943604 
	C268.013672,978.872253 308.435425,881.796753 348.877289,784.729614 
	C375.114105,721.756897 401.389038,658.800110 427.603363,595.818115 
	C428.948517,592.586304 429.882660,589.183472 431.312012,584.963135 
	C292.987396,584.963135 155.920959,584.963135 18.395430,584.963135 
	C18.395430,914.805176 18.395430,1244.016357 18.395430,1573.227539 
	C18.938833,1573.353271 19.482235,1573.479004 20.025639,1573.604614 
	C70.291306,1453.019043 120.556969,1332.433594 171.534561,1210.491699 
M1121.853149,1539.159424 
	C1126.680054,1550.607666 1131.507080,1562.055908 1137.099976,1575.320801 
	C1139.481445,1558.772949 1138.698242,592.177124 1136.579102,584.999023 
	C999.884094,584.999023 863.137024,584.999023 725.427856,584.999023 
	C726.414673,588.309937 726.930115,590.840210 727.901733,593.181213 
	C746.908325,638.974304 765.950317,684.752686 785.020386,730.519409 
	C830.582031,839.864502 876.176758,949.195862 921.730347,1058.544312 
	C960.245911,1150.998779 998.728333,1243.467041 1037.214478,1335.933838 
	C1065.216187,1403.210815 1093.200195,1470.495361 1121.853149,1539.159424 
M3320.175537,1327.212891 
	C3324.197510,1323.221680 3328.220947,1319.231934 3332.241211,1315.239258 
	C3355.348877,1292.288696 3371.746338,1265.214111 3382.025391,1234.360107 
	C3392.982666,1201.468872 3397.253174,1167.854370 3394.524658,1133.184082 
	C3392.785645,1111.089600 3388.639404,1089.670166 3380.419189,1069.149658 
	C3358.453613,1014.317932 3319.620850,976.994141 3263.555664,958.036072 
	C3226.594727,945.537964 3188.723633,943.442444 3150.320312,949.390381 
	C3139.840820,951.013367 3129.432617,953.097778 3117.669189,955.207520 
	C3117.669189,934.968323 3117.669189,915.072693 3117.669189,895.177063 
	C3117.669189,874.846008 3117.679199,854.514893 3117.666504,834.183838 
	C3117.654053,814.316406 3117.725342,794.446228 3117.612305,773.820801 
	C3111.313965,773.238403 3106.414062,772.413513 3101.511230,772.392944 
	C3072.181641,772.269775 3042.851318,772.329895 3013.521240,772.335632 
	C3011.188721,772.336060 3008.847900,772.276062 3006.525146,772.442261 
	C3001.408936,772.808411 2998.733887,775.695129 2998.425049,780.763245 
	C2998.303467,782.756775 2998.334961,784.761047 2998.334961,786.760437 
	C2998.331787,976.072754 2998.325928,1165.385010 2998.345215,1354.697388 
	C2998.346436,1367.794800 2999.679932,1369.672607 3011.834473,1373.063232 
	C3064.877197,1387.859863 3118.749023,1394.275146 3173.726074,1388.289917 
	C3227.994629,1382.381714 3277.038574,1363.657715 3320.175537,1327.212891 
M2319.663574,882.999817 
	C2319.663574,904.229919 2319.663574,925.459961 2319.663574,947.625854 
	C2315.165039,947.625854 2311.912842,947.625366 2308.660645,947.626038 
	C2294.750244,947.628845 2280.822021,947.178894 2266.933105,947.726013 
	C2234.658203,948.997375 2203.760498,956.570068 2174.259521,969.652710 
	C2116.824951,995.122742 2076.593506,1037.036133 2055.900635,1096.505737 
	C2038.396240,1146.810913 2039.483032,1197.854248 2053.846436,1248.741455 
	C2062.217285,1278.397461 2076.991699,1304.625977 2098.413574,1326.920898 
	C2128.035889,1357.750244 2164.766846,1375.406738 2206.075439,1384.202148 
	C2239.549316,1391.329224 2273.315674,1391.571411 2307.332275,1388.505615 
	C2351.128906,1384.558350 2393.134033,1373.909180 2433.715576,1357.252930 
	C2442.273682,1353.740112 2442.449463,1353.195801 2441.933838,1343.873291 
	C2440.685791,1321.315430 2438.536621,1298.754150 2438.495605,1276.191162 
	C2438.198975,1113.213867 2438.336426,950.235779 2438.336426,787.257996 
	C2438.336426,782.999268 2438.336426,778.740540 2438.336426,773.682068 
	C2433.354736,773.154785 2429.472168,772.399597 2425.586914,772.387146 
	C2394.924805,772.288879 2364.262207,772.303955 2333.599609,772.346008 
	C2321.049805,772.363220 2319.693115,773.698120 2319.677734,786.012695 
	C2319.637939,817.674988 2319.663818,849.337402 2319.663574,882.999817 
M1774.999878,1247.670776 
	C1803.571899,1247.670776 1832.143799,1247.670776 1860.605591,1247.670776 
	C1862.651245,1253.227661 1864.350830,1257.548706 1865.841675,1261.940674 
	C1878.039429,1297.874023 1890.180908,1333.826538 1902.379150,1369.760010 
	C1906.231445,1381.108276 1907.094360,1381.663696 1919.595947,1381.667358 
	C1951.595093,1381.676758 1983.594360,1381.673828 2015.593506,1381.669556 
	C2032.203247,1381.667236 2032.304443,1381.408081 2026.697754,1365.633667 
	C2013.656860,1328.943115 2000.722534,1292.214722 1987.740112,1255.503296 
	C1969.431396,1203.730347 1951.120239,1151.958374 1932.806274,1100.187378 
	C1912.494263,1042.768188 1892.178833,985.350281 1871.862915,927.932617 
	C1859.984009,894.359924 1848.027222,860.814453 1836.299438,827.189087 
	C1834.549072,822.170410 1832.246338,819.543213 1826.434326,819.568848 
	C1782.769653,819.761353 1739.103638,819.625366 1695.438354,819.716309 
	C1687.246460,819.733398 1686.715454,820.257019 1686.354858,829.051819 
	C1685.543091,848.848755 1681.321533,867.861267 1674.701538,886.506470 
	C1664.567505,915.048767 1654.911255,943.760559 1645.019531,972.389160 
	C1616.975464,1053.553589 1588.924805,1134.715576 1560.857178,1215.871948 
	C1546.279297,1258.023193 1531.656128,1300.158813 1517.063232,1342.304932 
	C1513.905151,1351.425537 1510.640869,1360.513428 1507.696777,1369.703247 
	C1504.768921,1378.842529 1506.575195,1381.316772 1515.841675,1381.659058 
	C1516.840454,1381.695923 1517.841431,1381.669678 1518.841431,1381.669678 
	C1548.507324,1381.670166 1578.173340,1381.685547 1607.839233,1381.662598 
	C1619.660767,1381.653442 1620.547363,1381.039185 1624.142578,1369.878784 
	C1635.673706,1334.082642 1647.127808,1298.261719 1658.684814,1262.474121 
	C1660.283447,1257.523926 1662.294067,1252.706909 1664.172607,1247.670776 
	C1701.038452,1247.670776 1737.019043,1247.670776 1774.999878,1247.670776 
M2861.745117,997.223206 
	C2844.972900,982.183228 2826.197998,970.311157 2805.259033,961.996033 
	C2764.288086,945.725952 2721.916748,942.241638 2678.803955,950.052734 
	C2612.977295,961.979187 2564.152588,997.711609 2533.236816,1057.205322 
	C2514.585693,1093.097656 2507.094238,1131.502808 2507.498291,1171.897705 
	C2507.905762,1212.604004 2516.321533,1251.099731 2535.375000,1287.132690 
	C2556.017334,1326.171143 2586.154785,1355.175171 2626.913086,1372.649292 
	C2666.134766,1389.464600 2707.125000,1393.905273 2749.143555,1388.286255 
	C2825.366699,1378.093140 2879.652100,1337.979980 2910.069336,1267.125732 
	C2929.442871,1221.996582 2933.540771,1174.726196 2926.415039,1126.290405 
	C2919.111816,1076.645508 2899.219727,1033.336182 2861.745117,997.223206 
M3715.467041,957.406921 
	C3680.698975,945.596375 3645.196777,943.618958 3609.231445,950.119446 
	C3545.999268,961.548035 3499.360596,996.230164 3469.977783,1053.000977 
	C3437.215820,1116.301147 3433.467773,1182.909058 3452.348389,1250.899414 
	C3462.065430,1285.891724 3480.267822,1316.287109 3507.712646,1340.640015 
	C3542.802490,1371.777100 3584.905273,1385.773193 3630.724365,1389.482788 
	C3655.923584,1391.523071 3681.253906,1391.099609 3706.501953,1388.390137 
	C3734.179932,1385.420044 3760.756104,1378.724854 3786.220215,1367.332764 
	C3792.956787,1364.318970 3795.874756,1360.382568 3795.784424,1352.947998 
	C3795.480225,1327.956299 3795.697021,1302.958374 3795.629150,1277.963135 
	C3795.621338,1275.127197 3795.072754,1272.292969 3794.661377,1268.376953 
	C3790.459229,1269.772217 3787.428467,1270.844849 3784.357422,1271.786255 
	C3772.915283,1275.293701 3761.599121,1279.338745 3749.981445,1282.119751 
	C3724.656494,1288.181641 3698.960205,1289.894531 3672.884033,1288.527710 
	C3654.724121,1287.575684 3637.124756,1284.781738 3620.349854,1277.952637 
	C3590.886230,1265.958252 3571.889648,1244.682983 3565.001953,1213.280151 
	C3564.113770,1209.231567 3564.132080,1204.984375 3563.618408,1199.671997 
	C3568.434082,1199.671997 3572.020020,1199.672119 3575.605713,1199.672119 
	C3597.601807,1199.671997 3619.597656,1199.671753 3641.593750,1199.671753 
	C3685.562012,1199.671631 3729.532471,1199.919556 3773.497314,1199.526489 
	C3787.401611,1199.402222 3801.324707,1197.881470 3815.173828,1196.392456 
	C3823.533447,1195.493774 3824.678467,1194.043457 3825.724854,1186.044922 
	C3827.232422,1174.523926 3829.046631,1162.980957 3829.513916,1151.398315 
	C3830.646729,1123.320312 3828.347412,1095.494751 3819.659912,1068.584717 
	C3802.623047,1015.812622 3769.879395,977.439209 3715.467041,957.406921 
M421.080688,1379.670166 
	C473.069275,1379.670166 525.057861,1379.669800 577.046448,1379.671265 
	C579.712524,1379.671265 582.386963,1379.824707 585.042603,1379.662476 
	C588.982056,1379.421875 591.226868,1381.192261 592.426453,1384.876953 
	C593.351196,1387.717407 594.700928,1390.417114 595.801086,1393.203247 
	C619.025696,1452.019409 642.274170,1510.826050 665.431091,1569.668823 
	C669.905090,1581.037476 669.256287,1579.640747 679.538208,1579.649658 
	C729.860657,1579.693359 780.183167,1579.678833 830.505615,1579.646362 
	C833.719177,1579.644287 836.932556,1579.317749 840.178711,1579.140259 
	C839.177002,1570.889282 584.914917,964.320862 578.423584,954.170837 
	C577.868774,954.506531 577.007690,954.712219 576.802368,955.196167 
	C520.006592,1089.060181 463.248260,1222.940063 406.528564,1356.836304 
	C403.682068,1363.556152 401.175415,1370.420044 398.542328,1377.229126 
	C398.447357,1377.474854 398.671234,1377.859375 398.784119,1378.165405 
	C398.895447,1378.467163 399.054626,1378.751343 399.489716,1379.670166 
	C405.831177,1379.670166 412.473877,1379.670166 421.080688,1379.670166 
z"/>
<path fill="#FA0F00" opacity="1.000000" stroke="none" 
	d="
M171.178589,1211.169922 
	C120.556969,1332.433594 70.291306,1453.019043 20.025639,1573.604614 
	C19.482235,1573.479004 18.938833,1573.353271 18.395430,1573.227539 
	C18.395430,1244.016357 18.395430,914.805176 18.395430,584.963135 
	C155.920959,584.963135 292.987396,584.963135 431.312012,584.963135 
	C429.882660,589.183472 428.948517,592.586304 427.603363,595.818115 
	C401.389038,658.800110 375.114105,721.756897 348.877289,784.729614 
	C308.435425,881.796753 268.013672,978.872253 227.582001,1075.943604 
	C208.901260,1120.793701 190.217148,1165.642334 171.178589,1211.169922 
z"/>
<path fill="#FA0F00" opacity="1.000000" stroke="none" 
	d="
M1121.522705,1538.468018 
	C1093.200195,1470.495361 1065.216187,1403.210815 1037.214478,1335.933838 
	C998.728333,1243.467041 960.245911,1150.998779 921.730347,1058.544312 
	C876.176758,949.195862 830.582031,839.864502 785.020386,730.519409 
	C765.950317,684.752686 746.908325,638.974304 727.901733,593.181213 
	C726.930115,590.840210 726.414673,588.309937 725.427856,584.999023 
	C863.137024,584.999023 999.884094,584.999023 1136.579102,584.999023 
	C1138.698242,592.177124 1139.481445,1558.772949 1137.099976,1575.320801 
	C1131.507080,1562.055908 1126.680054,1550.607666 1121.522705,1538.468018 
z"/>
<path fill="#FA0F00" opacity="1.000000" stroke="none" 
	d="
M3319.621338,1327.654663 
	C3277.038574,1363.657715 3227.994629,1382.381714 3173.726074,1388.289917 
	C3118.749023,1394.275146 3064.877197,1387.859863 3011.834473,1373.063232 
	C2999.679932,1369.672607 2998.346436,1367.794800 2998.345215,1354.697388 
	C2998.325928,1165.385010 2998.331787,976.072754 2998.334961,786.760437 
	C2998.334961,784.761047 2998.303467,782.756775 2998.425049,780.763245 
	C2998.733887,775.695129 3001.408936,772.808411 3006.525146,772.442261 
	C3008.847900,772.276062 3011.188721,772.336060 3013.521240,772.335632 
	C3042.851318,772.329895 3072.181641,772.269775 3101.511230,772.392944 
	C3106.414062,772.413513 3111.313965,773.238403 3117.612305,773.820801 
	C3117.725342,794.446228 3117.654053,814.316406 3117.666504,834.183838 
	C3117.679199,854.514893 3117.669189,874.846008 3117.669189,895.177063 
	C3117.669189,915.072693 3117.669189,934.968323 3117.669189,955.207520 
	C3129.432617,953.097778 3139.840820,951.013367 3150.320312,949.390381 
	C3188.723633,943.442444 3226.594727,945.537964 3263.555664,958.036072 
	C3319.620850,976.994141 3358.453613,1014.317932 3380.419189,1069.149658 
	C3388.639404,1089.670166 3392.785645,1111.089600 3394.524658,1133.184082 
	C3397.253174,1167.854370 3392.982666,1201.468872 3382.025391,1234.360107 
	C3371.746338,1265.214111 3355.348877,1292.288696 3332.241211,1315.239258 
	C3328.220947,1319.231934 3324.197510,1323.221680 3319.621338,1327.654663 
M3250.110352,1082.960083 
	C3236.172607,1066.305176 3218.719727,1055.531250 3197.401367,1050.920166 
	C3180.629150,1047.292725 3163.719727,1046.751465 3146.817139,1048.819702 
	C3137.100098,1050.008789 3127.128174,1051.000000 3118.285400,1055.461182 
	C3118.285400,1133.182251 3118.285400,1210.336060 3118.285400,1287.305908 
	C3136.867920,1292.715698 3162.659668,1292.871948 3186.749756,1286.360474 
	C3226.707520,1275.559814 3253.693359,1250.965210 3266.445801,1211.237183 
	C3274.648193,1185.684448 3275.676270,1159.630859 3271.356689,1133.385864 
	C3268.411621,1115.492676 3262.414307,1098.610107 3250.110352,1082.960083 
z"/>
<path fill="#FA0F00" opacity="1.000000" stroke="none" 
	d="
M2319.663574,881.999756 
	C2319.663818,849.337402 2319.637939,817.674988 2319.677734,786.012695 
	C2319.693115,773.698120 2321.049805,772.363220 2333.599609,772.346008 
	C2364.262207,772.303955 2394.924805,772.288879 2425.586914,772.387146 
	C2429.472168,772.399597 2433.354736,773.154785 2438.336426,773.682068 
	C2438.336426,778.740540 2438.336426,782.999268 2438.336426,787.257996 
	C2438.336426,950.235779 2438.198975,1113.213867 2438.495605,1276.191162 
	C2438.536621,1298.754150 2440.685791,1321.315430 2441.933838,1343.873291 
	C2442.449463,1353.195801 2442.273682,1353.740112 2433.715576,1357.252930 
	C2393.134033,1373.909180 2351.128906,1384.558350 2307.332275,1388.505615 
	C2273.315674,1391.571411 2239.549316,1391.329224 2206.075439,1384.202148 
	C2164.766846,1375.406738 2128.035889,1357.750244 2098.413574,1326.920898 
	C2076.991699,1304.625977 2062.217285,1278.397461 2053.846436,1248.741455 
	C2039.483032,1197.854248 2038.396240,1146.810913 2055.900635,1096.505737 
	C2076.593506,1037.036133 2116.824951,995.122742 2174.259521,969.652710 
	C2203.760498,956.570068 2234.658203,948.997375 2266.933105,947.726013 
	C2280.822021,947.178894 2294.750244,947.628845 2308.660645,947.626038 
	C2311.912842,947.625366 2315.165039,947.625854 2319.663574,947.625854 
	C2319.663574,925.459961 2319.663574,904.229919 2319.663574,881.999756 
M2218.915771,1274.185181 
	C2249.512207,1289.658081 2297.694336,1293.309814 2319.247559,1281.680542 
	C2319.247559,1204.938354 2319.247559,1128.101440 2319.247559,1050.535034 
	C2316.270996,1049.671997 2313.532471,1048.579102 2310.690430,1048.100464 
	C2285.207764,1043.808838 2260.287354,1046.151367 2236.297852,1055.703003 
	C2200.672852,1069.887451 2178.377686,1095.778931 2169.552490,1133.227783 
	C2163.550293,1158.697388 2164.495605,1184.144165 2170.816895,1209.232910 
	C2177.738770,1236.703369 2192.257080,1259.203979 2218.915771,1274.185181 
z"/>
<path fill="#F90F00" opacity="1.000000" stroke="none" 
	d="
M1773.999756,1247.670776 
	C1737.019043,1247.670776 1701.038452,1247.670776 1664.172607,1247.670776 
	C1662.294067,1252.706909 1660.283447,1257.523926 1658.684814,1262.474121 
	C1647.127808,1298.261719 1635.673706,1334.082642 1624.142578,1369.878784 
	C1620.547363,1381.039185 1619.660767,1381.653442 1607.839233,1381.662598 
	C1578.173340,1381.685547 1548.507324,1381.670166 1518.841431,1381.669678 
	C1517.841431,1381.669678 1516.840454,1381.695923 1515.841675,1381.659058 
	C1506.575195,1381.316772 1504.768921,1378.842529 1507.696777,1369.703247 
	C1510.640869,1360.513428 1513.905151,1351.425537 1517.063232,1342.304932 
	C1531.656128,1300.158813 1546.279297,1258.023193 1560.857178,1215.871948 
	C1588.924805,1134.715576 1616.975464,1053.553589 1645.019531,972.389160 
	C1654.911255,943.760559 1664.567505,915.048767 1674.701538,886.506470 
	C1681.321533,867.861267 1685.543091,848.848755 1686.354858,829.051819 
	C1686.715454,820.257019 1687.246460,819.733398 1695.438354,819.716309 
	C1739.103638,819.625366 1782.769653,819.761353 1826.434326,819.568848 
	C1832.246338,819.543213 1834.549072,822.170410 1836.299438,827.189087 
	C1848.027222,860.814453 1859.984009,894.359924 1871.862915,927.932617 
	C1892.178833,985.350281 1912.494263,1042.768188 1932.806274,1100.187378 
	C1951.120239,1151.958374 1969.431396,1203.730347 1987.740112,1255.503296 
	C2000.722534,1292.214722 2013.656860,1328.943115 2026.697754,1365.633667 
	C2032.304443,1381.408081 2032.203247,1381.667236 2015.593506,1381.669556 
	C1983.594360,1381.673828 1951.595093,1381.676758 1919.595947,1381.667358 
	C1907.094360,1381.663696 1906.231445,1381.108276 1902.379150,1369.760010 
	C1890.180908,1333.826538 1878.039429,1297.874023 1865.841675,1261.940674 
	C1864.350830,1257.548706 1862.651245,1253.227661 1860.605591,1247.670776 
	C1832.143799,1247.670776 1803.571899,1247.670776 1773.999756,1247.670776 
M1703.910034,1140.339111 
	C1745.151001,1140.339111 1786.391846,1140.339111 1829.469238,1140.339111 
	C1806.644043,1066.531250 1784.250000,994.117188 1761.435913,920.344971 
	C1754.116333,946.009827 1747.432617,970.260071 1740.260864,994.365112 
	C1732.960938,1018.900757 1725.233765,1043.310181 1717.595337,1067.743896 
	C1710.132446,1091.615845 1701.446167,1115.122559 1694.859009,1140.009644 
	C1698.221924,1140.160156 1700.189575,1140.248291 1703.910034,1140.339111 
z"/>
<path fill="#F90F00" opacity="1.000000" stroke="none" 
	d="
M2862.250488,997.724182 
	C2899.219727,1033.336182 2919.111816,1076.645508 2926.415039,1126.290405 
	C2933.540771,1174.726196 2929.442871,1221.996582 2910.069336,1267.125732 
	C2879.652100,1337.979980 2825.366699,1378.093140 2749.143555,1388.286255 
	C2707.125000,1393.905273 2666.134766,1389.464600 2626.913086,1372.649292 
	C2586.154785,1355.175171 2556.017334,1326.171143 2535.375000,1287.132690 
	C2516.321533,1251.099731 2507.905762,1212.604004 2507.498291,1171.897705 
	C2507.094238,1131.502808 2514.585693,1093.097656 2533.236816,1057.205322 
	C2564.152588,997.711609 2612.977295,961.979187 2678.803955,950.052734 
	C2721.916748,942.241638 2764.288086,945.725952 2805.259033,961.996033 
	C2826.197998,970.311157 2844.972900,982.183228 2862.250488,997.724182 
M2801.510010,1117.806152 
	C2797.859863,1105.310913 2792.991455,1093.438477 2785.860840,1082.394653 
	C2761.581055,1044.788940 2712.451416,1038.261719 2680.809814,1054.325073 
	C2660.768311,1064.499634 2647.979004,1081.227783 2639.874756,1101.463501 
	C2625.038574,1138.506348 2624.949463,1176.657104 2633.668701,1215.055664 
	C2638.005615,1234.155884 2646.576172,1251.139282 2659.953125,1265.822876 
	C2687.532227,1296.095703 2741.884033,1299.106567 2771.210693,1271.834351 
	C2787.161621,1257.000732 2796.629395,1238.718628 2801.826904,1218.041260 
	C2810.077148,1185.219604 2809.645020,1152.285278 2801.510010,1117.806152 
z"/>
<path fill="#F90F00" opacity="1.000000" stroke="none" 
	d="
M3716.226074,957.617554 
	C3769.879395,977.439209 3802.623047,1015.812622 3819.659912,1068.584717 
	C3828.347412,1095.494751 3830.646729,1123.320312 3829.513916,1151.398315 
	C3829.046631,1162.980957 3827.232422,1174.523926 3825.724854,1186.044922 
	C3824.678467,1194.043457 3823.533447,1195.493774 3815.173828,1196.392456 
	C3801.324707,1197.881470 3787.401611,1199.402222 3773.497314,1199.526489 
	C3729.532471,1199.919556 3685.562012,1199.671631 3641.593750,1199.671753 
	C3619.597656,1199.671753 3597.601807,1199.671997 3575.605713,1199.672119 
	C3572.020020,1199.672119 3568.434082,1199.671997 3563.618408,1199.671997 
	C3564.132080,1204.984375 3564.113770,1209.231567 3565.001953,1213.280151 
	C3571.889648,1244.682983 3590.886230,1265.958252 3620.349854,1277.952637 
	C3637.124756,1284.781738 3654.724121,1287.575684 3672.884033,1288.527710 
	C3698.960205,1289.894531 3724.656494,1288.181641 3749.981445,1282.119751 
	C3761.599121,1279.338745 3772.915283,1275.293701 3784.357422,1271.786255 
	C3787.428467,1270.844849 3790.459229,1269.772217 3794.661377,1268.376953 
	C3795.072754,1272.292969 3795.621338,1275.127197 3795.629150,1277.963135 
	C3795.697021,1302.958374 3795.480225,1327.956299 3795.784424,1352.947998 
	C3795.874756,1360.382568 3792.956787,1364.318970 3786.220215,1367.332764 
	C3760.756104,1378.724854 3734.179932,1385.420044 3706.501953,1388.390137 
	C3681.253906,1391.099609 3655.923584,1391.523071 3630.724365,1389.482788 
	C3584.905273,1385.773193 3542.802490,1371.777100 3507.712646,1340.640015 
	C3480.267822,1316.287109 3462.065430,1285.891724 3452.348389,1250.899414 
	C3433.467773,1182.909058 3437.215820,1116.301147 3469.977783,1053.000977 
	C3499.360596,996.230164 3545.999268,961.548035 3609.231445,950.119446 
	C3645.196777,943.618958 3680.698975,945.596375 3716.226074,957.617554 
M3682.990234,1116.337524 
	C3694.416992,1116.070923 3705.999023,1117.301636 3717.462402,1113.606445 
	C3717.028320,1109.540527 3716.612061,1106.310303 3716.348389,1103.067871 
	C3713.879150,1072.691528 3688.694824,1045.636108 3658.573975,1041.908203 
	C3649.821533,1040.824829 3640.760010,1041.038940 3631.948242,1041.843750 
	C3589.683105,1045.704468 3564.549805,1084.768066 3563.424316,1116.337524 
	C3602.632812,1116.337524 3641.813477,1116.337524 3682.990234,1116.337524 
z"/>
<path fill="#F90F00" opacity="1.000000" stroke="none" 
	d="
M420.098633,1379.670166 
	C412.473877,1379.670166 405.831177,1379.670166 399.489716,1379.670166 
	C399.054626,1378.751343 398.895447,1378.467163 398.784119,1378.165405 
	C398.671234,1377.859375 398.447357,1377.474854 398.542328,1377.229126 
	C401.175415,1370.420044 403.682068,1363.556152 406.528564,1356.836304 
	C463.248260,1222.940063 520.006592,1089.060181 576.802368,955.196167 
	C577.007690,954.712219 577.868774,954.506531 578.424072,954.171631 
	C584.914917,964.320862 839.177002,1570.889282 840.178711,1579.140259 
	C836.932556,1579.317749 833.719177,1579.644287 830.505615,1579.646362 
	C780.183167,1579.678833 729.860657,1579.693359 679.538208,1579.649658 
	C669.256287,1579.640747 669.905090,1581.037476 665.431091,1569.668823 
	C642.274170,1510.826050 619.025696,1452.019409 595.801086,1393.203247 
	C594.700928,1390.417114 593.351196,1387.717407 592.426453,1384.876953 
	C591.226868,1381.192261 588.982056,1379.421875 585.042603,1379.662476 
	C582.386963,1379.824707 579.712524,1379.671265 577.046448,1379.671265 
	C525.057861,1379.669800 473.069275,1379.670166 420.098633,1379.670166 
z"/>
<path fill="#fff" opacity="1.000000" stroke="none" 
	d="
M3250.519531,1083.547363 
	C3262.414307,1098.610107 3268.411621,1115.492676 3271.356689,1133.385864 
	C3275.676270,1159.630859 3274.648193,1185.684448 3266.445801,1211.237183 
	C3253.693359,1250.965210 3226.707520,1275.559814 3186.749756,1286.360474 
	C3162.659668,1292.871948 3136.867920,1292.715698 3118.285400,1287.305908 
	C3118.285400,1210.336060 3118.285400,1133.182251 3118.285400,1055.461182 
	C3127.128174,1051.000000 3137.100098,1050.008789 3146.817139,1048.819702 
	C3163.719727,1046.751465 3180.629150,1047.292725 3197.401367,1050.920166 
	C3218.719727,1055.531250 3236.172607,1066.305176 3250.519531,1083.547363 
z"/>
<path fill="#fff" opacity="1.000000" stroke="none" 
	d="
M2218.242676,1273.884033 
	C2192.257080,1259.203979 2177.738770,1236.703369 2170.816895,1209.232910 
	C2164.495605,1184.144165 2163.550293,1158.697388 2169.552490,1133.227783 
	C2178.377686,1095.778931 2200.672852,1069.887451 2236.297852,1055.703003 
	C2260.287354,1046.151367 2285.207764,1043.808838 2310.690430,1048.100464 
	C2313.532471,1048.579102 2316.270996,1049.671997 2319.247559,1050.535034 
	C2319.247559,1128.101440 2319.247559,1204.938354 2319.247559,1281.680542 
	C2297.694336,1293.309814 2249.512207,1289.658081 2218.242676,1273.884033 
z"/>
<path fill="#fff" opacity="1.000000" stroke="none" 
	d="
M1703.033691,1140.337646 
	C1700.189575,1140.248291 1698.221924,1140.160156 1694.859009,1140.009644 
	C1701.446167,1115.122559 1710.132446,1091.615845 1717.595337,1067.743896 
	C1725.233765,1043.310181 1732.960938,1018.900757 1740.260864,994.365112 
	C1747.432617,970.260071 1754.116333,946.009827 1761.435913,920.344971 
	C1784.250000,994.117188 1806.644043,1066.531250 1829.469238,1140.339111 
	C1786.391846,1140.339111 1745.151001,1140.339111 1703.033691,1140.337646 
z"/>
<path fill="#fff" opacity="1.000000" stroke="none" 
	d="
M2801.709961,1118.601562 
	C2809.645020,1152.285278 2810.077148,1185.219604 2801.826904,1218.041260 
	C2796.629395,1238.718628 2787.161621,1257.000732 2771.210693,1271.834351 
	C2741.884033,1299.106567 2687.532227,1296.095703 2659.953125,1265.822876 
	C2646.576172,1251.139282 2638.005615,1234.155884 2633.668701,1215.055664 
	C2624.949463,1176.657104 2625.038574,1138.506348 2639.874756,1101.463501 
	C2647.979004,1081.227783 2660.768311,1064.499634 2680.809814,1054.325073 
	C2712.451416,1038.261719 2761.581055,1044.788940 2785.860840,1082.394653 
	C2792.991455,1093.438477 2797.859863,1105.310913 2801.709961,1118.601562 
z"/>
<path fill="#fff" opacity="1.000000" stroke="none" 
	d="
M3681.992188,1116.337524 
	C3641.813477,1116.337524 3602.632812,1116.337524 3563.424316,1116.337524 
	C3564.549805,1084.768066 3589.683105,1045.704468 3631.948242,1041.843750 
	C3640.760010,1041.038940 3649.821533,1040.824829 3658.573975,1041.908203 
	C3688.694824,1045.636108 3713.879150,1072.691528 3716.348389,1103.067871 
	C3716.612061,1106.310303 3717.028320,1109.540527 3717.462402,1113.606445 
	C3705.999023,1117.301636 3694.416992,1116.070923 3681.992188,1116.337524 
z"/>
</svg>